# xmcd
#
# Track frame offsets:
#	150
#	15417
#	31035
#	45077
#	56155
#	70500
#	78255
#	95732
#	111750
#	125427
#	144860
#	157902
#	175535
#	192030
#
# Disc length: 2894 seconds
#
# Revision: 1
# Processed by: cddbd v1.5.2PL0 Copyright (c) Steve Scherf et al.
# Submitted via: EZCDAudioConverter 6.0.7.1
#
DISCID=9a0b4c0e
DTITLE=Alison Krauss and Union Station - So Long So Wrong
DYEAR=1997
DGENRE=Country
TTITLE0=So Long, So Wrong
TTITLE1=No Place To Hide
TTITLE2=Deeper Than Crying
TTITLE3=I Can Let Go Now
TTITLE4=The Road Is A Lover
TTITLE5=Little Liza Jane
TTITLE6=It Doesn't Matter
TTITLE7=Find My Way Back To My Heart
TTITLE8=I'll Remember You, Love, In My Prayers
TTITLE9=Looking In The Eyes Of Love
TTITLE10=Pain Of A Troubled Life
TTITLE11=Happiness
TTITLE12=Blue Trail Of Sorrow
TTITLE13=There Is A Reason
EXTD=
EXTT0=
EXTT1=
EXTT2=
EXTT3=
EXTT4=
EXTT5=
EXTT6=
EXTT7=
EXTT8=
EXTT9=
EXTT10=
EXTT11=
EXTT12=
EXTT13=
PLAYORDER=
